<?xml version="1.0" encoding="utf-8"?>
<svg id="master-artboard" viewBox="0 0 1000 1000" version="1.1" xmlns="http://www.w3.org/2000/svg" x="0px" y="0px" style="enable-background:new 0 0 336 235.2;" width="1000px" height="1000px"><rect id="ee-background" x="0" y="0" width="1000" height="1000" style="fill: white; fill-opacity: 1; pointer-events: none;"/>














<g transform="matrix(5.8956403732299805, 0, 0, 5.8956403732299805, -3335.957507724219, -89.8978947241701)"><g id="g-3" transform="matrix(1, 0, 0, 1, 0, 0)">
	<g id="g-4" transform="matrix(-0.7695571780204773, -0.7670896649360655, 1.2383828163146973, -1.242365002632141, 1034.9215226588549, 718.4737182083014)">
		<path class="st0" d="M652,46c27.6,0,50,22.4,50,50s-22.4,50-50,50s-50-22.4-50-50S624.4,46,652,46z" style="fill: rgb(51, 51, 51);"/>
	</g>
<path d="M 656.6748657226562 71.1034164428711" style="fill: rgb(51, 51, 51); fill-opacity: 1; stroke: rgb(0, 0, 0); stroke-opacity: 1; stroke-width: 0; paint-order: fill;"/></g></g><g id="g-5" transform="matrix(-5.105073928833009, -5.088704586029053, 8.215159416198732, -8.241577148437502, 2949.924572353907, 4468.155797139843)">
		<path class="st0" d="M652,46c27.6,0,50,22.4,50,50s-22.4,50-50,50s-50-22.4-50-50S624.4,46,652,46z" style="fill: rgb(51, 51, 51); stroke: rgb(255, 255, 255); stroke-width: 5; stroke-opacity: 1; fill-opacity: 0; paint-order: fill;"/>
	</g></svg>